<?xml version="1.0" encoding="utf-8"?>
<!-- Generator: Adobe Illustrator 24.1.2, SVG Export Plug-In . SVG Version: 6.00 Build 0)  -->
<svg version="1.1" id="Layer_1" xmlns="http://www.w3.org/2000/svg" xmlns:xlink="http://www.w3.org/1999/xlink" x="0px" y="0px"
	 viewBox="0 0 600 800" style="enable-background:new 0 0 600 800;" xml:space="preserve">
<style type="text/css">
	.st0{fill:url(#SVGID_1_);}
	.st1{fill:url(#SVGID_2_);}
	.st2{fill:url(#SVGID_3_);}
	.st3{fill:url(#SVGID_4_);}
	.st4{fill:url(#SVGID_5_);}
	.st5{fill:url(#SVGID_6_);}
	.st6{fill:url(#SVGID_7_);}
	.st7{fill:url(#SVGID_8_);}
</style>
<linearGradient id="SVGID_1_" gradientUnits="userSpaceOnUse" x1="300" y1="800" x2="300" y2="0" gradientTransform="matrix(-1 0 0 1 600 0)">
	<stop  offset="0" style="stop-color:#00BFC7"/>
	<stop  offset="0.254" style="stop-color:#93ECDB"/>
	<stop  offset="0.2594" style="stop-color:#EAFFD2"/>
	<stop  offset="1" style="stop-color:#63B1FF"/>
</linearGradient>
<polygon class="st0" points="0,800 600,800 600,0 0,0 "/>
<linearGradient id="SVGID_2_" gradientUnits="userSpaceOnUse" x1="30.2455" y1="591.6909" x2="30.2455" y2="431.598" gradientTransform="matrix(1 0 0 1 380.3273 0)">
	<stop  offset="0" style="stop-color:#EAFFD2"/>
	<stop  offset="1" style="stop-color:#E8F4E9"/>
</linearGradient>
<path class="st1" d="M600,591.69V436.02c-49.25-12.15-85.29,0.95-109.59,36.49c0,0-152.7-46.72-190.41,49.52
	c-43.51,2.22-68.7,10-78.85,69.67C296.56,591.69,600,591.69,600,591.69z"/>
<linearGradient id="SVGID_3_" gradientUnits="userSpaceOnUse" x1="471.7545" y1="591.6909" x2="471.7545" y2="478.1825" gradientTransform="matrix(-1 0 0 1 600 0)">
	<stop  offset="0" style="stop-color:#EAFFD2"/>
	<stop  offset="1" style="stop-color:#F9FFF2"/>
</linearGradient>
<path class="st2" d="M0,591.69V480.93c0,0,115.11-19.55,140.64,45.61c68.73,7.82,108.98,24.76,115.85,65.15
	C205.44,591.69,0,591.69,0,591.69z"/>
<linearGradient id="SVGID_4_" gradientUnits="userSpaceOnUse" x1="490.4091" y1="591.6909" x2="490.4091" y2="485.4543">
	<stop  offset="0" style="stop-color:#F1FFE0"/>
	<stop  offset="1" style="stop-color:#FBFFF7"/>
</linearGradient>
<path class="st3" d="M600,486.19c0,0-150.45-14.33-160.27,83.4c-19.64,0.65-48.11,1.21-58.91,22.1c29.45,0,219.18,0,219.18,0V486.19
	z"/>
<g>
	<linearGradient id="SVGID_5_" gradientUnits="userSpaceOnUse" x1="297.8611" y1="219.5342" x2="267.3505" y2="209.2677">
		<stop  offset="0" style="stop-color:#FFFFFF"/>
		<stop  offset="1" style="stop-color:#E8F4E9"/>
	</linearGradient>
	<path class="st4" d="M264.77,218.31c2.27-0.12,4.53,0.06,6.77,0.33c2.25,0.27,4.48,0.69,6.68,1.25c2.2,0.54,4.38,1.22,6.51,2.02
		c2.14,0.78,4.22,1.74,6.27,2.77l-3.3,1.2c1.27-3.33,2.47-6.84,4.23-10.25c0.88-1.7,1.92-3.38,3.23-4.88
		c1.31-1.47,2.94-2.82,4.84-3.31c-1.25,1.47-2.08,3-2.72,4.65c-0.66,1.63-1.17,3.32-1.7,5.03c-1.03,3.43-2.02,6.99-3.49,10.52
		l-1.01,2.42l-2.29-1.22c-1.89-1.01-3.79-2.02-5.75-2.93c-1.94-0.95-3.93-1.82-5.93-2.69c-2-0.86-4.03-1.69-6.09-2.51
		C268.96,219.9,266.89,219.11,264.77,218.31z"/>
</g>
<g>
	<linearGradient id="SVGID_6_" gradientUnits="userSpaceOnUse" x1="527.1572" y1="238.249" x2="527.1572" y2="197.7063">
		<stop  offset="0" style="stop-color:#FFFFFF"/>
		<stop  offset="1" style="stop-color:#E8F4E9"/>
	</linearGradient>
	<path class="st5" d="M515.33,198.26c1.05,2.66,1.76,5.43,2.34,8.22c0.56,2.79,0.97,5.62,1.18,8.47c0.15,1.42,0.16,2.85,0.23,4.28
		c0,1.43,0.04,2.87-0.03,4.3c-0.08,2.87-0.39,5.74-0.79,8.6l-2.76-3.46c2.24,0.09,4.53,0.13,6.86,0.26
		c2.33,0.11,4.69,0.31,7.08,0.67c2.38,0.36,4.8,0.93,7.12,1.89c2.29,0.95,4.55,2.4,5.9,4.45c-2.25-0.92-4.43-1.25-6.65-1.38
		c-2.21-0.14-4.43-0.07-6.69,0c-2.26,0.07-4.54,0.18-6.87,0.21c-2.32,0.05-4.69,0.01-7.09-0.16l-3.3-0.23l0.53-3.23
		c0.44-2.66,0.89-5.33,1.19-8.04c0.35-2.7,0.6-5.42,0.83-8.16c0.22-2.74,0.41-5.5,0.55-8.27
		C515.11,203.9,515.22,201.11,515.33,198.26z"/>
</g>
<g>
	<linearGradient id="SVGID_7_" gradientUnits="userSpaceOnUse" x1="498.9616" y1="271.8015" x2="478.93" y2="252.0759">
		<stop  offset="0" style="stop-color:#FFFFFF"/>
		<stop  offset="1" style="stop-color:#E8F4E9"/>
	</linearGradient>
	<path class="st6" d="M473.45,258.19c1.83,0.77,3.53,1.78,5.19,2.85c1.66,1.07,3.25,2.25,4.76,3.53c3.05,2.53,5.79,5.45,8.21,8.65
		l-3.05-0.32c2.27-2.13,4.55-4.43,7.24-6.43c1.34-1,2.8-1.92,4.4-2.6c1.59-0.65,3.39-1.09,5.07-0.75c-1.55,0.68-2.78,1.56-3.92,2.61
		c-1.14,1.03-2.19,2.16-3.26,3.3c-2.12,2.3-4.26,4.71-6.76,6.92l-1.72,1.51l-1.33-1.83c-1.1-1.51-2.2-3.04-3.39-4.5
		c-1.16-1.49-2.39-2.93-3.63-4.38C478.76,263.87,476.16,261.05,473.45,258.19z"/>
</g>
<linearGradient id="SVGID_8_" gradientUnits="userSpaceOnUse" x1="300" y1="689.9454" x2="300" y2="615.3273">
	<stop  offset="0" style="stop-color:#67E4DA"/>
	<stop  offset="1" style="stop-color:#93ECDB"/>
</linearGradient>
<polygon class="st7" points="600,615.33 0,615.33 0,650.67 531.04,650.67 89.22,676.2 600,689.95 "/>
</svg>
