<svg id="Layer_1" data-name="Layer 1" xmlns="http://www.w3.org/2000/svg" xmlns:xlink="http://www.w3.org/1999/xlink" viewBox="0 0 600 600"><defs><style>.cls-1{fill:url(#linear-gradient);}.cls-2{fill:url(#linear-gradient-2);}.cls-3{fill:url(#linear-gradient-3);}.cls-4{fill:url(#linear-gradient-4);}.cls-5{fill:url(#linear-gradient-5);}</style><linearGradient id="linear-gradient" x1="300" y1="600" x2="300" gradientTransform="matrix(1, 0, 0, -1, 0, 600)" gradientUnits="userSpaceOnUse"><stop offset="0" stop-color="#00bfc7"/><stop offset="0.24" stop-color="#93ecdb"/><stop offset="0.3" stop-color="#eaffd2"/><stop offset="0.49" stop-color="#e6fcd4"/><stop offset="1" stop-color="#95caff"/></linearGradient><linearGradient id="linear-gradient-2" x1="67.88" y1="398.07" x2="67.88" y2="217.13" gradientTransform="translate(380.33)" gradientUnits="userSpaceOnUse"><stop offset="0" stop-color="#eaffd2"/><stop offset="1" stop-color="#e8f4e9"/></linearGradient><linearGradient id="linear-gradient-3" x1="511.68" y1="398.07" x2="511.68" y2="269.78" gradientTransform="matrix(-1, 0, 0, 1, 600, 0)" gradientUnits="userSpaceOnUse"><stop offset="0" stop-color="#eaffd2"/><stop offset="1" stop-color="#f9fff2"/></linearGradient><linearGradient id="linear-gradient-4" x1="512.18" y1="398.07" x2="512.18" y2="278" gradientUnits="userSpaceOnUse"><stop offset="0" stop-color="#f1ffe0"/><stop offset="1" stop-color="#fbfff7"/></linearGradient><linearGradient id="linear-gradient-5" x1="300" y1="549.86" x2="300" y2="461.24" gradientUnits="userSpaceOnUse"><stop offset="0" stop-color="#67e4da"/><stop offset="1" stop-color="#93ecdb"/></linearGradient></defs><rect class="cls-1" width="600" height="600" transform="translate(600 600) rotate(180)"/><path class="cls-2" d="M600,398.07V222.13c-39.47-13.73-68.34,1.08-87.82,41.24,0,0-122.36-52.8-152.57,56-34.87,2.51-55.06,11.31-63.19,78.74Z"/><path class="cls-3" d="M0,398.07V272.89s79.27-22.09,96.85,51.54c47.33,8.84,75.05,28,79.79,73.64Z"/><path class="cls-4" d="M600,278.83s-120.56-16.2-128.43,94.26c-15.73.73-38.55,1.36-47.2,25H600Z"/><polygon class="cls-5" points="600 461.24 0 461.24 0 503.22 531.04 503.22 89.22 533.53 600 549.86 600 461.24"/></svg>