<?xml version="1.0" encoding="utf-8"?>
<!-- Generator: Adobe Illustrator 24.1.2, SVG Export Plug-In . SVG Version: 6.00 Build 0)  -->
<svg version="1.1" id="Layer_1" xmlns="http://www.w3.org/2000/svg" xmlns:xlink="http://www.w3.org/1999/xlink" x="0px" y="0px"
	 viewBox="0 0 600 600" style="enable-background:new 0 0 600 600;" xml:space="preserve">
<style type="text/css">
	.st0{fill:url(#SVGID_1_);}
	.st1{fill:url(#SVGID_2_);}
	.st2{fill:url(#SVGID_3_);}
	.st3{fill:url(#SVGID_4_);}
	.st4{fill:url(#SVGID_5_);}
</style>
<linearGradient id="SVGID_1_" gradientUnits="userSpaceOnUse" x1="300" y1="600" x2="300" y2="0" gradientTransform="matrix(-1 0 0 1 600 0)">
	<stop  offset="0" style="stop-color:#00BFC7"/>
	<stop  offset="0.2112" style="stop-color:#93ECDB"/>
	<stop  offset="0.2861" style="stop-color:#EAFFD2"/>
	<stop  offset="0.3503" style="stop-color:#E6FCD4"/>
	<stop  offset="1" style="stop-color:#66B3FF"/>
</linearGradient>
<polygon class="st0" points="0,600 600,600 600,0 0,0 "/>
<linearGradient id="SVGID_2_" gradientUnits="userSpaceOnUse" x1="67.8818" y1="419.67" x2="67.8818" y2="320.4364" gradientTransform="matrix(1 0 0 1 380.3273 0)">
	<stop  offset="0" style="stop-color:#EAFFD2"/>
	<stop  offset="1" style="stop-color:#E8F4E9"/>
</linearGradient>
<path class="st1" d="M600,419.67v-96.49c-39.47-7.53-68.34,0.59-87.82,22.62c0,0-122.36-28.96-152.58,30.69
	c-34.86,1.38-55.05,6.2-63.19,43.18C356.85,419.67,600,419.67,600,419.67z"/>
<linearGradient id="SVGID_3_" gradientUnits="userSpaceOnUse" x1="511.6818" y1="419.67" x2="511.6818" y2="349.3118" gradientTransform="matrix(-1 0 0 1 600 0)">
	<stop  offset="0" style="stop-color:#EAFFD2"/>
	<stop  offset="1" style="stop-color:#F9FFF2"/>
</linearGradient>
<path class="st2" d="M0,419.67v-68.65c0,0,79.27-12.12,96.85,28.27c47.33,4.85,75.05,15.35,79.78,40.39
	C141.48,419.67,0,419.67,0,419.67z"/>
<linearGradient id="SVGID_4_" gradientUnits="userSpaceOnUse" x1="512.1832" y1="419.67" x2="512.1832" y2="353.8192">
	<stop  offset="0" style="stop-color:#F1FFE0"/>
	<stop  offset="1" style="stop-color:#FBFFF7"/>
</linearGradient>
<path class="st3" d="M600,354.28c0,0-120.56-8.88-128.43,51.69c-15.73,0.4-38.55,0.75-47.2,13.7c23.6,0,175.63,0,175.63,0V354.28z"
	/>
<linearGradient id="SVGID_5_" gradientUnits="userSpaceOnUse" x1="300" y1="549.8591" x2="300" y2="461.2364">
	<stop  offset="0" style="stop-color:#67E4DA"/>
	<stop  offset="1" style="stop-color:#93ECDB"/>
</linearGradient>
<polygon class="st4" points="600,461.24 0,461.24 0,503.22 531.04,503.22 89.22,533.53 600,549.86 "/>
</svg>
