<svg id="Layer_1" data-name="Layer 1" xmlns="http://www.w3.org/2000/svg" xmlns:xlink="http://www.w3.org/1999/xlink" viewBox="0 0 600 800"><defs><style>.cls-1{fill:url(#linear-gradient);}.cls-2{fill:url(#linear-gradient-2);}.cls-3{fill:url(#linear-gradient-3);}.cls-4{fill:url(#linear-gradient-4);}.cls-5{fill:url(#linear-gradient-5);}</style><linearGradient id="linear-gradient" x1="300" y1="800" x2="300" gradientTransform="matrix(1, 0, 0, -1, 0, 800)" gradientUnits="userSpaceOnUse"><stop offset="0" stop-color="#00bfc7"/><stop offset="0.3" stop-color="#93ecdb"/><stop offset="0.4" stop-color="#eaffd2"/><stop offset="0.56" stop-color="#e6fcd4"/><stop offset="1" stop-color="#95caff"/></linearGradient><linearGradient id="linear-gradient-2" x1="30.25" y1="501.45" x2="30.25" y2="260.2" gradientTransform="translate(380.33)" gradientUnits="userSpaceOnUse"><stop offset="0" stop-color="#eaffd2"/><stop offset="1" stop-color="#e8f4e9"/></linearGradient><linearGradient id="linear-gradient-3" x1="471.75" y1="501.45" x2="471.75" y2="330.4" gradientTransform="matrix(-1, 0, 0, 1, 600, 0)" gradientUnits="userSpaceOnUse"><stop offset="0" stop-color="#eaffd2"/><stop offset="1" stop-color="#f9fff2"/></linearGradient><linearGradient id="linear-gradient-4" x1="490.41" y1="501.45" x2="490.41" y2="341.36" gradientUnits="userSpaceOnUse"><stop offset="0" stop-color="#f1ffe0"/><stop offset="1" stop-color="#fbfff7"/></linearGradient><linearGradient id="linear-gradient-5" x1="300" y1="689.95" x2="300" y2="571.78" gradientUnits="userSpaceOnUse"><stop offset="0" stop-color="#67e4da"/><stop offset="1" stop-color="#93ecdb"/></linearGradient></defs><rect class="cls-1" width="600" height="800" transform="translate(600 800) rotate(180)"/><path class="cls-2" d="M600,501.45V266.87c-49.25-18.31-85.29,1.43-109.59,55,0,0-152.7-70.4-190.41,74.62-43.51,3.34-68.7,15.07-78.85,105Z"/><path class="cls-3" d="M0,501.45V334.54s115.11-29.45,140.64,68.73c68.72,11.78,109,37.31,115.85,98.18Z"/><path class="cls-4" d="M600,342.47s-150.45-21.6-160.27,125.67c-19.64,1-48.11,1.82-58.91,33.31H600Z"/><polygon class="cls-5" points="600 571.78 0 571.78 0 627.75 531.04 627.75 89.22 668.18 600 689.95 600 571.78"/></svg>